<?xml version="1.0" encoding="UTF-8" standalone="no"?>
<!DOCTYPE svg PUBLIC "-//W3C//DTD SVG 1.1//EN" "http://www.w3.org/Graphics/SVG/1.1/DTD/svg11.dtd">
<svg width="100%" height="100%" viewBox="0 0 50 30" version="1.1" xmlns="http://www.w3.org/2000/svg" xmlns:xlink="http://www.w3.org/1999/xlink" xml:space="preserve" xmlns:serif="http://www.serif.com/" style="fill-rule:evenodd;clip-rule:evenodd;">
    <g transform="matrix(0.327301,0,0,0.327301,-0.764673,26.8572)">
        <path d="M9.766,-46.094C9.766,-30.767 24.15,-15.737 44.212,-2.415C44.637,-2.146 45.274,-1.878 45.787,-1.878C46.302,-1.878 46.891,-2.146 47.361,-2.415C67.378,-15.737 81.808,-30.767 81.808,-46.094C81.808,-58.365 73.289,-67.222 61.872,-67.222C55.235,-67.222 48.761,-63.36 45.787,-57.29C42.816,-63.357 36.338,-67.222 29.702,-67.222C18.285,-67.222 9.766,-58.365 9.766,-46.094ZM11.983,-46.094C11.983,-57.232 19.47,-65.004 29.698,-65.004C36.652,-65.004 41.558,-60.736 44.495,-55.362C44.895,-54.606 45.264,-54.3 45.787,-54.3C46.313,-54.3 46.626,-54.61 47.078,-55.362C49.984,-60.729 54.924,-65.004 61.878,-65.004C72.062,-65.004 79.59,-57.232 79.59,-46.094C79.59,-31.57 64.729,-16.682 46.257,-4.339C46.09,-4.228 45.933,-4.124 45.787,-4.124C45.64,-4.124 45.483,-4.228 45.32,-4.339C26.844,-16.682 11.983,-31.57 11.983,-46.094Z" style="fill:rgb(255,158,11);fill-rule:nonzero;stroke:rgb(255,158,11);stroke-width:3.97px;"/>
    </g>
    <g transform="matrix(0.327301,0,0,0.327301,-0.764673,27.8933)">
        <path d="M72.9,-1.078C74.534,0.552 77.125,0.552 78.706,-1.084C80.374,-2.714 80.374,-5.253 78.702,-6.883L11.27,-74.354C9.64,-75.983 7.049,-75.983 5.465,-74.354C3.838,-72.727 3.838,-70.178 5.465,-68.506L72.9,-1.078Z" style="fill:rgb(255,158,11);fill-rule:nonzero;"/>
    </g>
</svg>
