<?xml version="1.0" encoding="UTF-8" standalone="no"?>
<!DOCTYPE svg PUBLIC "-//W3C//DTD SVG 1.1//EN" "http://www.w3.org/Graphics/SVG/1.1/DTD/svg11.dtd">
<svg width="100%" height="100%" viewBox="0 0 50 30" version="1.1" xmlns="http://www.w3.org/2000/svg" xmlns:xlink="http://www.w3.org/1999/xlink" xml:space="preserve" xmlns:serif="http://www.serif.com/" style="fill-rule:evenodd;clip-rule:evenodd;">
    <g transform="matrix(0.299266,0,0,0.299266,0.852364,26.601)">
        <g id="Ultralight-S">
            <path d="M30.068,-7.546C30.73,-7.546 31.077,-7.981 31.074,-8.541L29.633,-53.394C29.629,-53.957 29.145,-54.298 28.628,-54.298C28.015,-54.298 27.619,-53.954 27.622,-53.303L29.063,-8.496C29.066,-7.932 29.459,-7.546 30.068,-7.546ZM41.666,-7.546C42.281,-7.546 42.678,-7.936 42.678,-8.541L42.678,-53.303C42.678,-53.908 42.281,-54.298 41.666,-54.298C41.095,-54.298 40.653,-53.908 40.653,-53.303L40.653,-8.541C40.653,-7.936 41.095,-7.546 41.666,-7.546ZM53.221,-7.455C53.872,-7.455 54.268,-7.887 54.272,-8.45L55.709,-53.257C55.712,-53.908 55.274,-54.252 54.704,-54.252C54.14,-54.252 53.656,-53.908 53.653,-53.348L52.215,-8.496C52.212,-7.936 52.605,-7.455 53.221,-7.455ZM26.078,-64.259L28.289,-64.259L28.289,-72.235C28.289,-75.372 30.295,-77.19 33.708,-77.19L49.574,-77.19C53.029,-77.19 55.036,-75.372 55.036,-72.235L55.036,-64.259L57.25,-64.259L57.25,-72.269C57.25,-76.714 54.353,-79.37 49.518,-79.37L33.761,-79.37C28.975,-79.37 26.078,-76.714 26.078,-72.269L26.078,-64.259ZM6.993,-63.153L76.338,-63.153C76.964,-63.153 77.426,-63.664 77.426,-64.245C77.426,-64.917 76.915,-65.337 76.338,-65.337L6.993,-65.337C6.419,-65.337 5.859,-64.871 5.859,-64.245C5.859,-63.619 6.419,-63.153 6.993,-63.153ZM24.674,3.508L58.66,3.508C62.609,3.508 65.96,0.349 66.162,-3.513L69.337,-63.704L66.986,-63.704L63.864,-3.7C63.721,-0.958 61.393,1.324 58.564,1.324L24.673,1.324C21.896,1.324 19.565,-0.961 19.422,-3.7L16.244,-63.659L13.994,-63.659L17.218,-3.509C17.42,0.352 20.719,3.508 24.674,3.508Z" style="fill:rgb(255,158,11);fill-rule:nonzero;stroke:rgb(255,158,11);stroke-width:4.01px;"/>
        </g>
    </g>
</svg>
